999
"DXF R12 Output" (www.mydxf.blogspot.com)
 0 
SECTION
 2 
HEADER
 9 
$ACADVER
 1 
AC1009
 9 
$EXTMIN
 10 
 0 
 20 
 0 
 9 
$EXTMAX
 10 
 8.5 
 20 
 11 
 0 
ENDSEC
 0 
SECTION
 2 
ENTITIES
0
POLYLINE
8
0
62
10
70
0
10
0.000000
20
0.000000
66
1
0
VERTEX
8
0
10
116.632346
20
225.607938
70
0
0
VERTEX
8
0
10
116.526882
20
227.190971
70
0
0
VERTEX
8
0
10
116.217219
20
228.726182
70
0
0
VERTEX
8
0
10
115.713447
20
230.196154
70
0
0
VERTEX
8
0
10
115.025654
20
231.583471
70
0
0
VERTEX
8
0
10
114.163933
20
232.870717
70
0
0
VERTEX
8
0
10
113.138371
20
234.040476
70
0
0
VERTEX
8
0
10
111.959061
20
235.075331
70
0
0
VERTEX
8
0
10
110.636092
20
235.957866
70
0
0
VERTEX
8
0
10
109.207659
20
236.658364
70
0
0
VERTEX
8
0
10
107.718686
20
237.158720
70
0
0
VERTEX
8
0
10
106.189352
20
237.458934
70
0
0
VERTEX
8
0
10
104.639838
20
237.559005
70
0
0
VERTEX
8
0
10
103.090324
20
237.458934
70
0
0
VERTEX
8
0
10
101.560990
20
237.158720
70
0
0
VERTEX
8
0
10
100.072017
20
236.658364
70
0
0
VERTEX
8
0
10
98.643584
20
235.957866
70
0
0
VERTEX
8
0
10
97.320615
20
235.075331
70
0
0
VERTEX
8
0
10
96.141305
20
234.040476
70
0
0
VERTEX
8
0
10
95.115744
20
232.870717
70
0
0
VERTEX
8
0
10
94.254022
20
231.583471
70
0
0
VERTEX
8
0
10
93.566230
20
230.196154
70
0
0
VERTEX
8
0
10
93.062457
20
228.726182
70
0
0
VERTEX
8
0
10
92.752794
20
227.190971
70
0
0
VERTEX
8
0
10
92.647330
20
225.607938
70
0
0
VERTEX
8
0
10
92.752794
20
224.024904
70
0
0
VERTEX
8
0
10
93.062457
20
222.489693
70
0
0
VERTEX
8
0
10
93.566230
20
221.019721
70
0
0
VERTEX
8
0
10
94.254022
20
219.632404
70
0
0
VERTEX
8
0
10
95.115744
20
218.345158
70
0
0
VERTEX
8
0
10
96.141305
20
217.175400
70
0
0
VERTEX
8
0
10
97.320615
20
216.140545
70
0
0
VERTEX
8
0
10
98.643584
20
215.258010
70
0
0
VERTEX
8
0
10
100.072017
20
214.557511
70
0
0
VERTEX
8
0
10
101.560990
20
214.057155
70
0
0
VERTEX
8
0
10
103.090324
20
213.756941
70
0
0
VERTEX
8
0
10
104.639838
20
213.656870
70
0
0
VERTEX
8
0
10
106.189352
20
213.756941
70
0
0
VERTEX
8
0
10
107.718686
20
214.057155
70
0
0
VERTEX
8
0
10
109.207659
20
214.557511
70
0
0
VERTEX
8
0
10
110.636092
20
215.258010
70
0
0
VERTEX
8
0
10
111.959061
20
216.140545
70
0
0
VERTEX
8
0
10
113.138371
20
217.175400
70
0
0
VERTEX
8
0
10
114.163933
20
218.345158
70
0
0
VERTEX
8
0
10
115.025654
20
219.632404
70
0
0
VERTEX
8
0
10
115.713447
20
221.019721
70
0
0
VERTEX
8
0
10
116.217219
20
222.489693
70
0
0
VERTEX
8
0
10
116.526882
20
224.024904
70
0
0
VERTEX
8
0
10
116.632346
20
225.607938
70
0
0
VERTEX
8
0
10
116.632346
20
225.607938
70
0
0
SEQEND
8
0
0
POLYLINE
8
0
62
10
70
0
10
0.000000
20
0.000000
66
1
0
VERTEX
8
0
10
393.459368
20
225.607938
70
0
0
VERTEX
8
0
10
393.212049
20
228.013235
70
0
0
VERTEX
8
0
10
392.510879
20
230.253087
70
0
0
VERTEX
8
0
10
391.403964
20
232.279639
70
0
0
VERTEX
8
0
10
389.939408
20
234.045038
70
0
0
VERTEX
8
0
10
388.165317
20
235.501428
70
0
0
VERTEX
8
0
10
386.129795
20
236.600955
70
0
0
VERTEX
8
0
10
383.880948
20
237.295764
70
0
0
VERTEX
8
0
10
381.466879
20
237.538002
70
0
0
VERTEX
8
0
10
379.052811
20
237.295764
70
0
0
VERTEX
8
0
10
376.803964
20
236.600955
70
0
0
VERTEX
8
0
10
374.768442
20
235.501428
70
0
0
VERTEX
8
0
10
372.994351
20
234.045038
70
0
0
VERTEX
8
0
10
371.529795
20
232.279639
70
0
0
VERTEX
8
0
10
370.422880
20
230.253087
70
0
0
VERTEX
8
0
10
369.721710
20
228.013235
70
0
0
VERTEX
8
0
10
369.474390
20
225.607938
70
0
0
VERTEX
8
0
10
369.721710
20
223.202641
70
0
0
VERTEX
8
0
10
370.422880
20
220.962789
70
0
0
VERTEX
8
0
10
371.529795
20
218.936236
70
0
0
VERTEX
8
0
10
372.994351
20
217.170838
70
0
0
VERTEX
8
0
10
374.768442
20
215.714448
70
0
0
VERTEX
8
0
10
376.803964
20
214.614921
70
0
0
VERTEX
8
0
10
379.052811
20
213.920111
70
0
0
VERTEX
8
0
10
381.466879
20
213.677874
70
0
0
VERTEX
8
0
10
383.880948
20
213.920111
70
0
0
VERTEX
8
0
10
386.129795
20
214.614921
70
0
0
VERTEX
8
0
10
388.165317
20
215.714448
70
0
0
VERTEX
8
0
10
389.939408
20
217.170838
70
0
0
VERTEX
8
0
10
391.403964
20
218.936236
70
0
0
VERTEX
8
0
10
392.510879
20
220.962789
70
0
0
VERTEX
8
0
10
393.212049
20
223.202641
70
0
0
VERTEX
8
0
10
393.459368
20
225.607938
70
0
0
VERTEX
8
0
10
393.459368
20
225.607938
70
0
0
SEQEND
8
0
0
POLYLINE
8
0
62
10
70
0
10
0.000000
20
0.000000
66
1
0
VERTEX
8
0
10
238.056488
20
391.926854
70
0
0
VERTEX
8
0
10
237.781612
20
393.283657
70
0
0
VERTEX
8
0
10
237.032001
20
394.391637
70
0
0
VERTEX
8
0
10
235.920179
20
395.138657
70
0
0
VERTEX
8
0
10
234.558671
20
395.412583
70
0
0
VERTEX
8
0
10
233.197164
20
395.138657
70
0
0
VERTEX
8
0
10
232.085342
20
394.391637
70
0
0
VERTEX
8
0
10
231.335731
20
393.283657
70
0
0
VERTEX
8
0
10
231.060855
20
391.926854
70
0
0
VERTEX
8
0
10
231.335731
20
390.570051
70
0
0
VERTEX
8
0
10
232.085342
20
389.462071
70
0
0
VERTEX
8
0
10
233.197164
20
388.715051
70
0
0
VERTEX
8
0
10
234.558671
20
388.441125
70
0
0
VERTEX
8
0
10
235.920179
20
388.715051
70
0
0
VERTEX
8
0
10
237.032001
20
389.462071
70
0
0
VERTEX
8
0
10
237.781612
20
390.570051
70
0
0
VERTEX
8
0
10
238.056488
20
391.926854
70
0
0
VERTEX
8
0
10
238.056488
20
391.926854
70
0
0
SEQEND
8
0
0
POLYLINE
8
0
62
10
70
0
10
0.000000
20
0.000000
66
1
0
VERTEX
8
0
10
54.671055
20
30.406220
70
0
0
VERTEX
8
0
10
479.405902
20
30.406220
70
0
0
SEQEND
8
0
0
POLYLINE
8
0
62
10
70
0
10
0.000000
20
0.000000
66
1
0
VERTEX
8
0
10
54.671055
20
30.406220
70
0
0
VERTEX
8
0
10
54.671055
20
574.181910
70
0
0
SEQEND
8
0
0
POLYLINE
8
0
62
10
70
0
10
0.000000
20
0.000000
66
1
0
VERTEX
8
0
10
54.671055
20
574.181910
70
0
0
VERTEX
8
0
10
479.405902
20
574.181910
70
0
0
SEQEND
8
0
0
POLYLINE
8
0
62
10
70
0
10
0.000000
20
0.000000
66
1
0
VERTEX
8
0
10
479.405902
20
30.406220
70
0
0
VERTEX
8
0
10
479.405902
20
574.181910
70
0
0
SEQEND
8
0
 0 
ENDSEC
 0 
EOF