999
"DXF R12 Output" (www.mydxf.blogspot.com)
 0 
SECTION
 2 
HEADER
 9 
$ACADVER
 1 
AC1009
 9 
$EXTMIN
 10 
 0 
 20 
 0 
 9 
$EXTMAX
 10 
 8.5 
 20 
 11 
 0 
ENDSEC
 0 
SECTION
 2 
ENTITIES
0
POLYLINE
8
0
62
10
70
0
10
0.000000
20
0.000000
66
1
0
VERTEX
8
0
10
446.550858
20
118.193533
70
0
0
VERTEX
8
0
10
446.398894
20
118.935580
70
0
0
VERTEX
8
0
10
445.990122
20
119.541046
70
0
0
VERTEX
8
0
10
445.385469
20
119.949005
70
0
0
VERTEX
8
0
10
444.645860
20
120.098530
70
0
0
VERTEX
8
0
10
443.906252
20
119.949005
70
0
0
VERTEX
8
0
10
443.301599
20
119.541046
70
0
0
VERTEX
8
0
10
442.892827
20
118.935580
70
0
0
VERTEX
8
0
10
442.740863
20
118.193533
70
0
0
VERTEX
8
0
10
442.892827
20
117.451485
70
0
0
VERTEX
8
0
10
443.301599
20
116.846019
70
0
0
VERTEX
8
0
10
443.906252
20
116.438061
70
0
0
VERTEX
8
0
10
444.645860
20
116.288535
70
0
0
VERTEX
8
0
10
445.385469
20
116.438061
70
0
0
VERTEX
8
0
10
445.990122
20
116.846019
70
0
0
VERTEX
8
0
10
446.398894
20
117.451485
70
0
0
VERTEX
8
0
10
446.550858
20
118.193533
70
0
0
VERTEX
8
0
10
446.550858
20
118.193533
70
0
0
SEQEND
8
0
0
POLYLINE
8
0
62
10
70
0
10
0.000000
20
0.000000
66
1
0
VERTEX
8
0
10
484.315504
20
66.689473
70
0
0
VERTEX
8
0
10
484.315504
20
79.389457
70
0
0
SEQEND
8
0
0
POLYLINE
8
0
62
10
70
0
10
0.000000
20
0.000000
66
1
0
VERTEX
8
0
10
484.315504
20
142.889906
70
0
0
VERTEX
8
0
10
430.975571
20
142.889906
70
0
0
SEQEND
8
0
0
POLYLINE
8
0
62
10
70
0
10
0.000000
20
0.000000
66
1
0
VERTEX
8
0
10
405.575603
20
142.889906
70
0
0
VERTEX
8
0
10
269.177854
20
142.889906
70
0
0
SEQEND
8
0
0
POLYLINE
8
0
62
10
70
0
10
0.000000
20
0.000000
66
1
0
VERTEX
8
0
10
484.315504
20
79.389457
70
0
0
VERTEX
8
0
10
471.615520
20
79.389457
70
0
0
SEQEND
8
0
0
POLYLINE
8
0
62
10
70
0
10
0.000000
20
0.000000
66
1
0
VERTEX
8
0
10
471.615520
20
79.389457
70
0
0
VERTEX
8
0
10
471.615520
20
92.089441
70
0
0
SEQEND
8
0
0
POLYLINE
8
0
62
10
70
0
10
0.000000
20
0.000000
66
1
0
VERTEX
8
0
10
471.615520
20
92.089441
70
0
0
VERTEX
8
0
10
484.315504
20
92.089441
70
0
0
SEQEND
8
0
0
POLYLINE
8
0
62
10
70
0
10
0.000000
20
0.000000
66
1
0
VERTEX
8
0
10
484.315504
20
92.089441
70
0
0
VERTEX
8
0
10
484.315504
20
111.139417
70
0
0
SEQEND
8
0
0
POLYLINE
8
0
62
10
70
0
10
0.000000
20
0.000000
66
1
0
VERTEX
8
0
10
484.315504
20
111.139417
70
0
0
VERTEX
8
0
10
471.615520
20
111.139417
70
0
0
SEQEND
8
0
0
POLYLINE
8
0
62
10
70
0
10
0.000000
20
0.000000
66
1
0
VERTEX
8
0
10
471.615520
20
111.139417
70
0
0
VERTEX
8
0
10
471.615520
20
123.839401
70
0
0
SEQEND
8
0
0
POLYLINE
8
0
62
10
70
0
10
0.000000
20
0.000000
66
1
0
VERTEX
8
0
10
471.615520
20
123.839401
70
0
0
VERTEX
8
0
10
484.315504
20
123.839401
70
0
0
SEQEND
8
0
0
POLYLINE
8
0
62
10
70
0
10
0.000000
20
0.000000
66
1
0
VERTEX
8
0
10
484.315504
20
123.839401
70
0
0
VERTEX
8
0
10
484.315504
20
142.889906
70
0
0
SEQEND
8
0
0
POLYLINE
8
0
62
10
70
0
10
0.000000
20
0.000000
66
1
0
VERTEX
8
0
10
243.777886
20
142.889906
70
0
0
VERTEX
8
0
10
107.379979
20
142.889906
70
0
0
SEQEND
8
0
0
POLYLINE
8
0
62
10
70
0
10
0.000000
20
0.000000
66
1
0
VERTEX
8
0
10
81.980011
20
142.889906
70
0
0
VERTEX
8
0
10
28.640078
20
142.889906
70
0
0
SEQEND
8
0
0
POLYLINE
8
0
62
10
70
0
10
0.000000
20
0.000000
66
1
0
VERTEX
8
0
10
28.640078
20
142.889906
70
0
0
VERTEX
8
0
10
28.640078
20
123.839401
70
0
0
SEQEND
8
0
0
POLYLINE
8
0
62
10
70
0
10
0.000000
20
0.000000
66
1
0
VERTEX
8
0
10
28.640078
20
123.839401
70
0
0
VERTEX
8
0
10
41.340062
20
123.839401
70
0
0
SEQEND
8
0
0
POLYLINE
8
0
62
10
70
0
10
0.000000
20
0.000000
66
1
0
VERTEX
8
0
10
41.340062
20
123.839401
70
0
0
VERTEX
8
0
10
41.340062
20
111.139417
70
0
0
SEQEND
8
0
0
POLYLINE
8
0
62
10
70
0
10
0.000000
20
0.000000
66
1
0
VERTEX
8
0
10
41.340062
20
111.139417
70
0
0
VERTEX
8
0
10
28.640078
20
111.139417
70
0
0
SEQEND
8
0
0
POLYLINE
8
0
62
10
70
0
10
0.000000
20
0.000000
66
1
0
VERTEX
8
0
10
28.640078
20
111.139417
70
0
0
VERTEX
8
0
10
28.640078
20
92.089441
70
0
0
SEQEND
8
0
0
POLYLINE
8
0
62
10
70
0
10
0.000000
20
0.000000
66
1
0
VERTEX
8
0
10
28.640078
20
92.089441
70
0
0
VERTEX
8
0
10
41.340062
20
92.089441
70
0
0
SEQEND
8
0
0
POLYLINE
8
0
62
10
70
0
10
0.000000
20
0.000000
66
1
0
VERTEX
8
0
10
41.340062
20
92.089441
70
0
0
VERTEX
8
0
10
41.340062
20
79.389457
70
0
0
SEQEND
8
0
0
POLYLINE
8
0
62
10
70
0
10
0.000000
20
0.000000
66
1
0
VERTEX
8
0
10
41.340062
20
79.389457
70
0
0
VERTEX
8
0
10
28.640078
20
79.389457
70
0
0
SEQEND
8
0
0
POLYLINE
8
0
62
10
70
0
10
0.000000
20
0.000000
66
1
0
VERTEX
8
0
10
28.640078
20
79.389457
70
0
0
VERTEX
8
0
10
28.640078
20
66.689473
70
0
0
SEQEND
8
0
0
POLYLINE
8
0
62
10
70
0
10
0.000000
20
0.000000
66
1
0
VERTEX
8
0
10
484.315504
20
66.689473
70
0
0
VERTEX
8
0
10
28.640078
20
66.689473
70
0
0
SEQEND
8
0
0
POLYLINE
8
0
62
10
70
0
10
0.000000
20
0.000000
66
1
0
VERTEX
8
0
10
484.315504
20
66.689473
70
0
0
VERTEX
8
0
10
484.315504
20
79.389457
70
0
0
SEQEND
8
0
0
POLYLINE
8
0
62
10
70
0
10
0.000000
20
0.000000
66
1
0
VERTEX
8
0
10
28.640078
20
79.389457
70
0
0
VERTEX
8
0
10
41.340062
20
79.389457
70
0
0
SEQEND
8
0
0
POLYLINE
8
0
62
10
70
0
10
0.000000
20
0.000000
66
1
0
VERTEX
8
0
10
41.340062
20
79.389457
70
0
0
VERTEX
8
0
10
41.340062
20
92.089441
70
0
0
SEQEND
8
0
0
POLYLINE
8
0
62
10
70
0
10
0.000000
20
0.000000
66
1
0
VERTEX
8
0
10
41.340062
20
92.089441
70
0
0
VERTEX
8
0
10
28.640078
20
92.089441
70
0
0
SEQEND
8
0
0
POLYLINE
8
0
62
10
70
0
10
0.000000
20
0.000000
66
1
0
VERTEX
8
0
10
28.640078
20
92.089441
70
0
0
VERTEX
8
0
10
28.640078
20
111.139417
70
0
0
SEQEND
8
0
0
POLYLINE
8
0
62
10
70
0
10
0.000000
20
0.000000
66
1
0
VERTEX
8
0
10
28.640078
20
111.139417
70
0
0
VERTEX
8
0
10
41.340062
20
111.139417
70
0
0
SEQEND
8
0
0
POLYLINE
8
0
62
10
70
0
10
0.000000
20
0.000000
66
1
0
VERTEX
8
0
10
41.340062
20
111.139417
70
0
0
VERTEX
8
0
10
41.340062
20
123.839401
70
0
0
SEQEND
8
0
0
POLYLINE
8
0
62
10
70
0
10
0.000000
20
0.000000
66
1
0
VERTEX
8
0
10
41.340062
20
123.839401
70
0
0
VERTEX
8
0
10
28.640078
20
123.839401
70
0
0
SEQEND
8
0
0
POLYLINE
8
0
62
10
70
0
10
0.000000
20
0.000000
66
1
0
VERTEX
8
0
10
28.640078
20
123.839401
70
0
0
VERTEX
8
0
10
28.640078
20
142.889906
70
0
0
SEQEND
8
0
0
POLYLINE
8
0
62
10
70
0
10
0.000000
20
0.000000
66
1
0
VERTEX
8
0
10
28.640078
20
142.889906
70
0
0
VERTEX
8
0
10
81.980011
20
142.889906
70
0
0
SEQEND
8
0
0
POLYLINE
8
0
62
10
70
0
10
0.000000
20
0.000000
66
1
0
VERTEX
8
0
10
82.045720
20
149.460946
70
0
0
VERTEX
8
0
10
82.045720
20
143.110954
70
0
0
SEQEND
8
0
0
POLYLINE
8
0
62
10
70
0
10
0.000000
20
0.000000
66
1
0
VERTEX
8
0
10
82.111432
20
149.566653
70
0
0
VERTEX
8
0
10
107.511400
20
149.566653
70
0
0
SEQEND
8
0
0
POLYLINE
8
0
62
10
70
0
10
0.000000
20
0.000000
66
1
0
VERTEX
8
0
10
107.445688
20
143.110954
70
0
0
VERTEX
8
0
10
107.445688
20
149.460946
70
0
0
SEQEND
8
0
0
POLYLINE
8
0
62
10
70
0
10
0.000000
20
0.000000
66
1
0
VERTEX
8
0
10
107.379979
20
142.889906
70
0
0
VERTEX
8
0
10
243.777886
20
142.889906
70
0
0
SEQEND
8
0
0
POLYLINE
8
0
62
10
70
0
10
0.000000
20
0.000000
66
1
0
VERTEX
8
0
10
243.777886
20
149.230958
70
0
0
VERTEX
8
0
10
243.777886
20
142.880966
70
0
0
SEQEND
8
0
0
POLYLINE
8
0
62
10
70
0
10
0.000000
20
0.000000
66
1
0
VERTEX
8
0
10
243.772251
20
149.292706
70
0
0
VERTEX
8
0
10
269.172219
20
149.292706
70
0
0
SEQEND
8
0
0
POLYLINE
8
0
62
10
70
0
10
0.000000
20
0.000000
66
1
0
VERTEX
8
0
10
269.131393
20
142.965592
70
0
0
VERTEX
8
0
10
269.131393
20
149.315584
70
0
0
SEQEND
8
0
0
POLYLINE
8
0
62
10
70
0
10
0.000000
20
0.000000
66
1
0
VERTEX
8
0
10
269.177854
20
142.889906
70
0
0
VERTEX
8
0
10
405.575603
20
142.889906
70
0
0
SEQEND
8
0
0
POLYLINE
8
0
62
10
70
0
10
0.000000
20
0.000000
66
1
0
VERTEX
8
0
10
405.529142
20
149.487833
70
0
0
VERTEX
8
0
10
405.529142
20
143.137841
70
0
0
SEQEND
8
0
0
POLYLINE
8
0
62
10
70
0
10
0.000000
20
0.000000
66
1
0
VERTEX
8
0
10
405.622090
20
149.503444
70
0
0
VERTEX
8
0
10
431.022058
20
149.503444
70
0
0
SEQEND
8
0
0
POLYLINE
8
0
62
10
70
0
10
0.000000
20
0.000000
66
1
0
VERTEX
8
0
10
431.022058
20
143.044912
70
0
0
VERTEX
8
0
10
431.022058
20
149.394904
70
0
0
SEQEND
8
0
0
POLYLINE
8
0
62
10
70
0
10
0.000000
20
0.000000
66
1
0
VERTEX
8
0
10
430.975571
20
142.889906
70
0
0
VERTEX
8
0
10
484.315504
20
142.889906
70
0
0
SEQEND
8
0
0
POLYLINE
8
0
62
10
70
0
10
0.000000
20
0.000000
66
1
0
VERTEX
8
0
10
484.315504
20
142.889906
70
0
0
VERTEX
8
0
10
484.315504
20
123.839401
70
0
0
SEQEND
8
0
0
POLYLINE
8
0
62
10
70
0
10
0.000000
20
0.000000
66
1
0
VERTEX
8
0
10
484.315504
20
123.839401
70
0
0
VERTEX
8
0
10
471.615520
20
123.839401
70
0
0
SEQEND
8
0
0
POLYLINE
8
0
62
10
70
0
10
0.000000
20
0.000000
66
1
0
VERTEX
8
0
10
471.615520
20
123.839401
70
0
0
VERTEX
8
0
10
471.615520
20
111.139417
70
0
0
SEQEND
8
0
0
POLYLINE
8
0
62
10
70
0
10
0.000000
20
0.000000
66
1
0
VERTEX
8
0
10
471.615520
20
111.139417
70
0
0
VERTEX
8
0
10
484.315504
20
111.139417
70
0
0
SEQEND
8
0
0
POLYLINE
8
0
62
10
70
0
10
0.000000
20
0.000000
66
1
0
VERTEX
8
0
10
484.315504
20
111.139417
70
0
0
VERTEX
8
0
10
484.315504
20
92.089441
70
0
0
SEQEND
8
0
0
POLYLINE
8
0
62
10
70
0
10
0.000000
20
0.000000
66
1
0
VERTEX
8
0
10
484.315504
20
92.089441
70
0
0
VERTEX
8
0
10
471.615520
20
92.089441
70
0
0
SEQEND
8
0
0
POLYLINE
8
0
62
10
70
0
10
0.000000
20
0.000000
66
1
0
VERTEX
8
0
10
471.615520
20
92.089441
70
0
0
VERTEX
8
0
10
471.615520
20
79.389457
70
0
0
SEQEND
8
0
0
POLYLINE
8
0
62
10
70
0
10
0.000000
20
0.000000
66
1
0
VERTEX
8
0
10
471.615520
20
79.389457
70
0
0
VERTEX
8
0
10
484.315504
20
79.389457
70
0
0
SEQEND
8
0
0
POLYLINE
8
0
62
10
70
0
10
0.000000
20
0.000000
66
1
0
VERTEX
8
0
10
484.315504
20
79.389457
70
0
0
VERTEX
8
0
10
484.315504
20
66.689473
70
0
0
SEQEND
8
0
0
POLYLINE
8
0
62
10
70
0
10
0.000000
20
0.000000
66
1
0
VERTEX
8
0
10
484.315504
20
66.689473
70
0
0
VERTEX
8
0
10
28.640078
20
66.689473
70
0
0
SEQEND
8
0
0
POLYLINE
8
0
62
10
70
0
10
0.000000
20
0.000000
66
1
0
VERTEX
8
0
10
28.640078
20
66.689473
70
0
0
VERTEX
8
0
10
28.640078
20
79.389457
70
0
0
SEQEND
8
0
 0 
ENDSEC
 0 
EOF