999
"DXF R12 Output" (www.mydxf.blogspot.com)
 0 
SECTION
 2 
HEADER
 9 
$ACADVER
 1 
AC1009
 9 
$EXTMIN
 10 
 0 
 20 
 0 
 9 
$EXTMAX
 10 
 8.5 
 20 
 11 
 0 
ENDSEC
 0 
SECTION
 2 
ENTITIES
0
POLYLINE
8
0
62
7
70
0
10
0.000000
20
0.000000
66
1
0
VERTEX
8
0
10
254.856958
20
515.816915
70
0
0
VERTEX
8
0
10
254.780308
20
517.334861
70
0
0
VERTEX
8
0
10
254.555334
20
518.808959
70
0
0
VERTEX
8
0
10
253.690263
20
521.595758
70
0
0
VERTEX
8
0
10
252.321446
20
524.117612
70
0
0
VERTEX
8
0
10
250.508583
20
526.314821
70
0
0
VERTEX
8
0
10
248.311374
20
528.127685
70
0
0
VERTEX
8
0
10
245.789519
20
529.496502
70
0
0
VERTEX
8
0
10
243.002720
20
530.361573
70
0
0
VERTEX
8
0
10
241.528623
20
530.586546
70
0
0
VERTEX
8
0
10
240.010677
20
530.663196
70
0
0
VERTEX
8
0
10
238.492731
20
530.586546
70
0
0
VERTEX
8
0
10
237.018633
20
530.361573
70
0
0
VERTEX
8
0
10
234.231834
20
529.496502
70
0
0
VERTEX
8
0
10
231.709980
20
528.127685
70
0
0
VERTEX
8
0
10
229.512771
20
526.314821
70
0
0
VERTEX
8
0
10
227.699907
20
524.117612
70
0
0
VERTEX
8
0
10
226.331090
20
521.595758
70
0
0
VERTEX
8
0
10
225.466019
20
518.808959
70
0
0
VERTEX
8
0
10
225.241045
20
517.334861
70
0
0
VERTEX
8
0
10
225.164395
20
515.816915
70
0
0
VERTEX
8
0
10
225.294955
20
513.850383
70
0
0
VERTEX
8
0
10
225.678306
20
511.943259
70
0
0
VERTEX
8
0
10
226.301959
20
510.117177
70
0
0
VERTEX
8
0
10
227.153420
20
508.393775
70
0
0
VERTEX
8
0
10
228.220200
20
506.794686
70
0
0
VERTEX
8
0
10
229.489806
20
505.341547
70
0
0
VERTEX
8
0
10
230.949749
20
504.055993
70
0
0
VERTEX
8
0
10
232.587536
20
502.959659
70
0
0
VERTEX
8
0
10
234.355883
20
502.089460
70
0
0
VERTEX
8
0
10
236.199177
20
501.467890
70
0
0
VERTEX
8
0
10
238.092436
20
501.094948
70
0
0
VERTEX
8
0
10
240.010677
20
500.970634
70
0
0
VERTEX
8
0
10
241.928918
20
501.094948
70
0
0
VERTEX
8
0
10
243.822177
20
501.467890
70
0
0
VERTEX
8
0
10
245.665471
20
502.089460
70
0
0
VERTEX
8
0
10
247.433817
20
502.959659
70
0
0
VERTEX
8
0
10
249.071605
20
504.055993
70
0
0
VERTEX
8
0
10
250.531547
20
505.341547
70
0
0
VERTEX
8
0
10
251.801154
20
506.794686
70
0
0
VERTEX
8
0
10
252.867933
20
508.393775
70
0
0
VERTEX
8
0
10
253.719395
20
510.117177
70
0
0
VERTEX
8
0
10
254.343047
20
511.943259
70
0
0
VERTEX
8
0
10
254.726398
20
513.850383
70
0
0
VERTEX
8
0
10
254.856958
20
515.816915
70
0
0
VERTEX
8
0
10
254.856958
20
515.816915
70
0
0
SEQEND
8
0
0
POLYLINE
8
0
62
7
70
0
10
0.000000
20
0.000000
66
1
0
VERTEX
8
0
10
196.265079
20
562.044773
70
0
0
VERTEX
8
0
10
183.565095
20
562.044773
70
0
0
SEQEND
8
0
0
POLYLINE
8
0
62
7
70
0
10
0.000000
20
0.000000
66
1
0
VERTEX
8
0
10
183.565095
20
562.044773
70
0
0
VERTEX
8
0
10
183.565095
20
536.644805
70
0
0
SEQEND
8
0
0
POLYLINE
8
0
62
7
70
0
10
0.000000
20
0.000000
66
1
0
VERTEX
8
0
10
183.565095
20
536.644805
70
0
0
VERTEX
8
0
10
196.265079
20
536.644805
70
0
0
SEQEND
8
0
0
POLYLINE
8
0
62
7
70
0
10
0.000000
20
0.000000
66
1
0
VERTEX
8
0
10
196.265079
20
536.644805
70
0
0
VERTEX
8
0
10
196.264920
20
439.362927
70
0
0
SEQEND
8
0
0
POLYLINE
8
0
62
7
70
0
10
0.000000
20
0.000000
66
1
0
VERTEX
8
0
10
196.264920
20
439.362927
70
0
0
VERTEX
8
0
10
183.565095
20
439.426427
70
0
0
SEQEND
8
0
0
POLYLINE
8
0
62
7
70
0
10
0.000000
20
0.000000
66
1
0
VERTEX
8
0
10
183.565095
20
439.426427
70
0
0
VERTEX
8
0
10
183.565095
20
414.026459
70
0
0
SEQEND
8
0
0
POLYLINE
8
0
62
7
70
0
10
0.000000
20
0.000000
66
1
0
VERTEX
8
0
10
183.565095
20
414.026459
70
0
0
VERTEX
8
0
10
196.265079
20
414.026459
70
0
0
SEQEND
8
0
0
POLYLINE
8
0
62
7
70
0
10
0.000000
20
0.000000
66
1
0
VERTEX
8
0
10
196.265079
20
414.026459
70
0
0
VERTEX
8
0
10
196.265079
20
326.142660
70
0
0
SEQEND
8
0
0
POLYLINE
8
0
62
7
70
0
10
0.000000
20
0.000000
66
1
0
VERTEX
8
0
10
196.265079
20
326.142660
70
0
0
VERTEX
8
0
10
183.565095
20
326.142660
70
0
0
SEQEND
8
0
0
POLYLINE
8
0
62
7
70
0
10
0.000000
20
0.000000
66
1
0
VERTEX
8
0
10
183.565095
20
326.142660
70
0
0
VERTEX
8
0
10
183.565095
20
300.742692
70
0
0
SEQEND
8
0
0
POLYLINE
8
0
62
7
70
0
10
0.000000
20
0.000000
66
1
0
VERTEX
8
0
10
183.565095
20
300.742692
70
0
0
VERTEX
8
0
10
196.265079
20
300.742692
70
0
0
SEQEND
8
0
0
POLYLINE
8
0
62
7
70
0
10
0.000000
20
0.000000
66
1
0
VERTEX
8
0
10
196.265079
20
300.742692
70
0
0
VERTEX
8
0
10
196.265079
20
212.858697
70
0
0
SEQEND
8
0
0
POLYLINE
8
0
62
7
70
0
10
0.000000
20
0.000000
66
1
0
VERTEX
8
0
10
196.265079
20
212.858697
70
0
0
VERTEX
8
0
10
183.565095
20
212.858697
70
0
0
SEQEND
8
0
0
POLYLINE
8
0
62
7
70
0
10
0.000000
20
0.000000
66
1
0
VERTEX
8
0
10
183.565095
20
212.858697
70
0
0
VERTEX
8
0
10
183.565095
20
187.458729
70
0
0
SEQEND
8
0
0
POLYLINE
8
0
62
7
70
0
10
0.000000
20
0.000000
66
1
0
VERTEX
8
0
10
183.565095
20
187.458729
70
0
0
VERTEX
8
0
10
196.265079
20
187.458729
70
0
0
SEQEND
8
0
0
POLYLINE
8
0
62
7
70
0
10
0.000000
20
0.000000
66
1
0
VERTEX
8
0
10
196.265079
20
187.458729
70
0
0
VERTEX
8
0
10
196.265079
20
90.176851
70
0
0
SEQEND
8
0
0
POLYLINE
8
0
62
7
70
0
10
0.000000
20
0.000000
66
1
0
VERTEX
8
0
10
196.265079
20
90.176851
70
0
0
VERTEX
8
0
10
183.565095
20
90.176851
70
0
0
SEQEND
8
0
0
POLYLINE
8
0
62
7
70
0
10
0.000000
20
0.000000
66
1
0
VERTEX
8
0
10
183.565095
20
90.176851
70
0
0
VERTEX
8
0
10
183.565095
20
64.776883
70
0
0
SEQEND
8
0
0
POLYLINE
8
0
62
7
70
0
10
0.000000
20
0.000000
66
1
0
VERTEX
8
0
10
183.565095
20
64.776883
70
0
0
VERTEX
8
0
10
196.265079
20
64.776883
70
0
0
SEQEND
8
0
0
POLYLINE
8
0
62
7
70
0
10
0.000000
20
0.000000
66
1
0
VERTEX
8
0
10
196.265079
20
64.776883
70
0
0
VERTEX
8
0
10
196.265079
20
9.404953
70
0
0
SEQEND
8
0
0
POLYLINE
8
0
62
7
70
0
10
0.000000
20
0.000000
66
1
0
VERTEX
8
0
10
196.265079
20
562.044773
70
0
0
VERTEX
8
0
10
196.265079
20
617.416704
70
0
0
SEQEND
8
0
0
POLYLINE
8
0
62
7
70
0
10
0.000000
20
0.000000
66
1
0
VERTEX
8
0
10
272.464980
20
617.416704
70
0
0
VERTEX
8
0
10
341.739160
20
9.404953
70
0
0
SEQEND
8
0
0
POLYLINE
8
0
62
7
70
0
10
0.000000
20
0.000000
66
1
0
VERTEX
8
0
10
341.739160
20
9.404953
70
0
0
VERTEX
8
0
10
196.265079
20
9.404953
70
0
0
SEQEND
8
0
0
POLYLINE
8
0
62
7
70
0
10
0.000000
20
0.000000
66
1
0
VERTEX
8
0
10
196.265079
20
617.416704
70
0
0
VERTEX
8
0
10
215.315055
20
617.416704
70
0
0
SEQEND
8
0
0
POLYLINE
8
0
62
7
70
0
10
0.000000
20
0.000000
66
1
0
VERTEX
8
0
10
215.315055
20
617.416704
70
0
0
VERTEX
8
0
10
215.315055
20
630.116688
70
0
0
SEQEND
8
0
0
POLYLINE
8
0
62
7
70
0
10
0.000000
20
0.000000
66
1
0
VERTEX
8
0
10
215.315055
20
630.116688
70
0
0
VERTEX
8
0
10
228.015039
20
630.116688
70
0
0
SEQEND
8
0
0
POLYLINE
8
0
62
7
70
0
10
0.000000
20
0.000000
66
1
0
VERTEX
8
0
10
228.015039
20
630.116688
70
0
0
VERTEX
8
0
10
228.015039
20
617.416704
70
0
0
SEQEND
8
0
0
POLYLINE
8
0
62
7
70
0
10
0.000000
20
0.000000
66
1
0
VERTEX
8
0
10
228.015039
20
617.416704
70
0
0
VERTEX
8
0
10
247.065015
20
617.416704
70
0
0
SEQEND
8
0
0
POLYLINE
8
0
62
7
70
0
10
0.000000
20
0.000000
66
1
0
VERTEX
8
0
10
247.065015
20
617.416704
70
0
0
VERTEX
8
0
10
247.065015
20
630.116688
70
0
0
SEQEND
8
0
0
POLYLINE
8
0
62
7
70
0
10
0.000000
20
0.000000
66
1
0
VERTEX
8
0
10
247.065015
20
630.116688
70
0
0
VERTEX
8
0
10
259.764999
20
630.116688
70
0
0
SEQEND
8
0
0
POLYLINE
8
0
62
7
70
0
10
0.000000
20
0.000000
66
1
0
VERTEX
8
0
10
259.764999
20
630.116688
70
0
0
VERTEX
8
0
10
259.764999
20
617.416704
70
0
0
SEQEND
8
0
0
POLYLINE
8
0
62
7
70
0
10
0.000000
20
0.000000
66
1
0
VERTEX
8
0
10
259.764999
20
617.416704
70
0
0
VERTEX
8
0
10
272.464980
20
617.416704
70
0
0
SEQEND
8
0
0
POLYLINE
8
0
62
7
70
0
10
0.000000
20
0.000000
66
1
0
VERTEX
8
0
10
457.695279
20
77.391195
70
0
0
VERTEX
8
0
10
457.771929
20
75.873249
70
0
0
VERTEX
8
0
10
457.996903
20
74.399152
70
0
0
VERTEX
8
0
10
458.861974
20
71.612353
70
0
0
VERTEX
8
0
10
460.230791
20
69.090499
70
0
0
VERTEX
8
0
10
462.043654
20
66.893290
70
0
0
VERTEX
8
0
10
464.240864
20
65.080426
70
0
0
VERTEX
8
0
10
466.762718
20
63.711609
70
0
0
VERTEX
8
0
10
469.549517
20
62.846538
70
0
0
VERTEX
8
0
10
471.023614
20
62.621564
70
0
0
VERTEX
8
0
10
472.541560
20
62.544915
70
0
0
VERTEX
8
0
10
474.059506
20
62.621564
70
0
0
VERTEX
8
0
10
475.533604
20
62.846538
70
0
0
VERTEX
8
0
10
478.320403
20
63.711609
70
0
0
VERTEX
8
0
10
480.842257
20
65.080426
70
0
0
VERTEX
8
0
10
483.039466
20
66.893290
70
0
0
VERTEX
8
0
10
484.852330
20
69.090499
70
0
0
VERTEX
8
0
10
486.221147
20
71.612353
70
0
0
VERTEX
8
0
10
487.086218
20
74.399152
70
0
0
VERTEX
8
0
10
487.311192
20
75.873249
70
0
0
VERTEX
8
0
10
487.387842
20
77.391195
70
0
0
VERTEX
8
0
10
487.311192
20
78.909141
70
0
0
VERTEX
8
0
10
487.086218
20
80.383239
70
0
0
VERTEX
8
0
10
486.221147
20
83.170038
70
0
0
VERTEX
8
0
10
484.852330
20
85.691892
70
0
0
VERTEX
8
0
10
483.039466
20
87.889101
70
0
0
VERTEX
8
0
10
480.842257
20
89.701964
70
0
0
VERTEX
8
0
10
478.320403
20
91.070781
70
0
0
VERTEX
8
0
10
475.533604
20
91.935852
70
0
0
VERTEX
8
0
10
474.059506
20
92.160826
70
0
0
VERTEX
8
0
10
472.541560
20
92.237476
70
0
0
VERTEX
8
0
10
471.023614
20
92.160826
70
0
0
VERTEX
8
0
10
469.549517
20
91.935852
70
0
0
VERTEX
8
0
10
466.762718
20
91.070781
70
0
0
VERTEX
8
0
10
464.240864
20
89.701964
70
0
0
VERTEX
8
0
10
462.043654
20
87.889101
70
0
0
VERTEX
8
0
10
460.230791
20
85.691892
70
0
0
VERTEX
8
0
10
458.861974
20
83.170038
70
0
0
VERTEX
8
0
10
457.996903
20
80.383239
70
0
0
VERTEX
8
0
10
457.771929
20
78.909141
70
0
0
VERTEX
8
0
10
457.695279
20
77.391195
70
0
0
VERTEX
8
0
10
457.695279
20
77.391195
70
0
0
SEQEND
8
0
0
POLYLINE
8
0
62
7
70
0
10
0.000000
20
0.000000
66
1
0
VERTEX
8
0
10
516.287158
20
31.163333
70
0
0
VERTEX
8
0
10
528.987142
20
31.163333
70
0
0
SEQEND
8
0
0
POLYLINE
8
0
62
7
70
0
10
0.000000
20
0.000000
66
1
0
VERTEX
8
0
10
528.987142
20
31.163333
70
0
0
VERTEX
8
0
10
528.987142
20
56.563301
70
0
0
SEQEND
8
0
0
POLYLINE
8
0
62
7
70
0
10
0.000000
20
0.000000
66
1
0
VERTEX
8
0
10
528.987142
20
56.563301
70
0
0
VERTEX
8
0
10
516.287158
20
56.563301
70
0
0
SEQEND
8
0
0
POLYLINE
8
0
62
7
70
0
10
0.000000
20
0.000000
66
1
0
VERTEX
8
0
10
516.287158
20
56.563301
70
0
0
VERTEX
8
0
10
516.287317
20
153.845205
70
0
0
SEQEND
8
0
0
POLYLINE
8
0
62
7
70
0
10
0.000000
20
0.000000
66
1
0
VERTEX
8
0
10
516.287317
20
153.845205
70
0
0
VERTEX
8
0
10
528.987142
20
153.781705
70
0
0
SEQEND
8
0
0
POLYLINE
8
0
62
7
70
0
10
0.000000
20
0.000000
66
1
0
VERTEX
8
0
10
528.987142
20
153.781705
70
0
0
VERTEX
8
0
10
528.987142
20
179.181673
70
0
0
SEQEND
8
0
0
POLYLINE
8
0
62
7
70
0
10
0.000000
20
0.000000
66
1
0
VERTEX
8
0
10
528.987142
20
179.181673
70
0
0
VERTEX
8
0
10
516.287158
20
179.181673
70
0
0
SEQEND
8
0
0
POLYLINE
8
0
62
7
70
0
10
0.000000
20
0.000000
66
1
0
VERTEX
8
0
10
516.287158
20
179.181673
70
0
0
VERTEX
8
0
10
516.287158
20
267.065456
70
0
0
SEQEND
8
0
0
POLYLINE
8
0
62
7
70
0
10
0.000000
20
0.000000
66
1
0
VERTEX
8
0
10
516.287158
20
267.065456
70
0
0
VERTEX
8
0
10
528.987142
20
267.065456
70
0
0
SEQEND
8
0
0
POLYLINE
8
0
62
7
70
0
10
0.000000
20
0.000000
66
1
0
VERTEX
8
0
10
528.987142
20
267.065456
70
0
0
VERTEX
8
0
10
528.987142
20
292.465424
70
0
0
SEQEND
8
0
0
POLYLINE
8
0
62
7
70
0
10
0.000000
20
0.000000
66
1
0
VERTEX
8
0
10
528.987142
20
292.465424
70
0
0
VERTEX
8
0
10
516.287158
20
292.465424
70
0
0
SEQEND
8
0
0
POLYLINE
8
0
62
7
70
0
10
0.000000
20
0.000000
66
1
0
VERTEX
8
0
10
516.287158
20
292.465424
70
0
0
VERTEX
8
0
10
516.287158
20
380.349427
70
0
0
SEQEND
8
0
0
POLYLINE
8
0
62
7
70
0
10
0.000000
20
0.000000
66
1
0
VERTEX
8
0
10
516.287158
20
380.349427
70
0
0
VERTEX
8
0
10
528.987142
20
380.349427
70
0
0
SEQEND
8
0
0
POLYLINE
8
0
62
7
70
0
10
0.000000
20
0.000000
66
1
0
VERTEX
8
0
10
528.987142
20
380.349427
70
0
0
VERTEX
8
0
10
528.987142
20
405.749395
70
0
0
SEQEND
8
0
0
POLYLINE
8
0
62
7
70
0
10
0.000000
20
0.000000
66
1
0
VERTEX
8
0
10
528.987142
20
405.749395
70
0
0
VERTEX
8
0
10
516.287158
20
405.749395
70
0
0
SEQEND
8
0
0
POLYLINE
8
0
62
7
70
0
10
0.000000
20
0.000000
66
1
0
VERTEX
8
0
10
516.287158
20
405.749395
70
0
0
VERTEX
8
0
10
516.287158
20
503.031286
70
0
0
SEQEND
8
0
0
POLYLINE
8
0
62
7
70
0
10
0.000000
20
0.000000
66
1
0
VERTEX
8
0
10
516.287158
20
503.031286
70
0
0
VERTEX
8
0
10
528.987142
20
503.031286
70
0
0
SEQEND
8
0
0
POLYLINE
8
0
62
7
70
0
10
0.000000
20
0.000000
66
1
0
VERTEX
8
0
10
528.987142
20
503.031286
70
0
0
VERTEX
8
0
10
528.987142
20
528.431254
70
0
0
SEQEND
8
0
0
POLYLINE
8
0
62
7
70
0
10
0.000000
20
0.000000
66
1
0
VERTEX
8
0
10
528.987142
20
528.431254
70
0
0
VERTEX
8
0
10
516.287158
20
528.431254
70
0
0
SEQEND
8
0
0
POLYLINE
8
0
62
7
70
0
10
0.000000
20
0.000000
66
1
0
VERTEX
8
0
10
516.287158
20
528.431254
70
0
0
VERTEX
8
0
10
516.287158
20
583.803184
70
0
0
SEQEND
8
0
0
POLYLINE
8
0
62
7
70
0
10
0.000000
20
0.000000
66
1
0
VERTEX
8
0
10
516.287158
20
31.163333
70
0
0
VERTEX
8
0
10
516.287158
20
-24.208597
70
0
0
SEQEND
8
0
0
POLYLINE
8
0
62
7
70
0
10
0.000000
20
0.000000
66
1
0
VERTEX
8
0
10
440.087254
20
-24.208597
70
0
0
VERTEX
8
0
10
370.813075
20
583.803184
70
0
0
SEQEND
8
0
0
POLYLINE
8
0
62
7
70
0
10
0.000000
20
0.000000
66
1
0
VERTEX
8
0
10
370.813075
20
583.803184
70
0
0
VERTEX
8
0
10
516.287158
20
583.803184
70
0
0
SEQEND
8
0
0
POLYLINE
8
0
62
7
70
0
10
0.000000
20
0.000000
66
1
0
VERTEX
8
0
10
516.287158
20
-24.208597
70
0
0
VERTEX
8
0
10
497.237182
20
-24.208597
70
0
0
SEQEND
8
0
0
POLYLINE
8
0
62
7
70
0
10
0.000000
20
0.000000
66
1
0
VERTEX
8
0
10
497.237182
20
-24.208597
70
0
0
VERTEX
8
0
10
497.237182
20
-36.908581
70
0
0
SEQEND
8
0
0
POLYLINE
8
0
62
7
70
0
10
0.000000
20
0.000000
66
1
0
VERTEX
8
0
10
497.237182
20
-36.908581
70
0
0
VERTEX
8
0
10
484.537198
20
-36.908581
70
0
0
SEQEND
8
0
0
POLYLINE
8
0
62
7
70
0
10
0.000000
20
0.000000
66
1
0
VERTEX
8
0
10
484.537198
20
-36.908581
70
0
0
VERTEX
8
0
10
484.537198
20
-24.208597
70
0
0
SEQEND
8
0
0
POLYLINE
8
0
62
7
70
0
10
0.000000
20
0.000000
66
1
0
VERTEX
8
0
10
484.537198
20
-24.208597
70
0
0
VERTEX
8
0
10
465.487222
20
-24.208597
70
0
0
SEQEND
8
0
0
POLYLINE
8
0
62
7
70
0
10
0.000000
20
0.000000
66
1
0
VERTEX
8
0
10
465.487222
20
-24.208597
70
0
0
VERTEX
8
0
10
465.487222
20
-36.908581
70
0
0
SEQEND
8
0
0
POLYLINE
8
0
62
7
70
0
10
0.000000
20
0.000000
66
1
0
VERTEX
8
0
10
465.487222
20
-36.908581
70
0
0
VERTEX
8
0
10
452.787238
20
-36.908581
70
0
0
SEQEND
8
0
0
POLYLINE
8
0
62
7
70
0
10
0.000000
20
0.000000
66
1
0
VERTEX
8
0
10
452.787238
20
-36.908581
70
0
0
VERTEX
8
0
10
452.787238
20
-24.208597
70
0
0
SEQEND
8
0
0
POLYLINE
8
0
62
7
70
0
10
0.000000
20
0.000000
66
1
0
VERTEX
8
0
10
452.787238
20
-24.208597
70
0
0
VERTEX
8
0
10
440.087254
20
-24.208597
70
0
0
SEQEND
8
0
 0 
ENDSEC
 0 
EOF