999
"DXF R12 Output" (www.mydxf.blogspot.com)
 0 
SECTION
 2 
HEADER
 9 
$ACADVER
 1 
AC1009
 9 
$EXTMIN
 10 
 0 
 20 
 0 
 9 
$EXTMAX
 10 
 8.5 
 20 
 11 
 0 
ENDSEC
 0 
SECTION
 2 
ENTITIES
0
POLYLINE
8
0
62
10
70
0
10
0.000000
20
0.000000
66
1
0
VERTEX
8
0
10
-227.805963
20
248.662273
70
0
0
VERTEX
8
0
10
-227.805963
20
304.006237
70
0
0
SEQEND
8
0
0
POLYLINE
8
0
62
10
70
0
10
0.000000
20
0.000000
66
1
0
VERTEX
8
0
10
-174.553078
20
304.006237
70
0
0
VERTEX
8
0
10
-174.553078
20
291.306253
70
0
0
SEQEND
8
0
0
POLYLINE
8
0
62
10
70
0
10
0.000000
20
0.000000
66
1
0
VERTEX
8
0
10
-174.553078
20
291.306253
70
0
0
VERTEX
8
0
10
-149.153110
20
291.306253
70
0
0
SEQEND
8
0
0
POLYLINE
8
0
62
10
70
0
10
0.000000
20
0.000000
66
1
0
VERTEX
8
0
10
-149.153110
20
291.306253
70
0
0
VERTEX
8
0
10
-149.153110
20
304.006237
70
0
0
SEQEND
8
0
0
POLYLINE
8
0
62
10
70
0
10
0.000000
20
0.000000
66
1
0
VERTEX
8
0
10
-227.805963
20
304.006237
70
0
0
VERTEX
8
0
10
-174.553078
20
304.006237
70
0
0
SEQEND
8
0
0
POLYLINE
8
0
62
10
70
0
10
0.000000
20
0.000000
66
1
0
VERTEX
8
0
10
-149.153110
20
304.006237
70
0
0
VERTEX
8
0
10
-12.699984
20
304.006237
70
0
0
SEQEND
8
0
0
POLYLINE
8
0
62
10
70
0
10
0.000000
20
0.000000
66
1
0
VERTEX
8
0
10
-12.699984
20
304.006237
70
0
0
VERTEX
8
0
10
-12.699984
20
291.306253
70
0
0
SEQEND
8
0
0
POLYLINE
8
0
62
10
70
0
10
0.000000
20
0.000000
66
1
0
VERTEX
8
0
10
-12.699984
20
291.306253
70
0
0
VERTEX
8
0
10
12.699984
20
291.306253
70
0
0
SEQEND
8
0
0
POLYLINE
8
0
62
10
70
0
10
0.000000
20
0.000000
66
1
0
VERTEX
8
0
10
149.153110
20
291.306253
70
0
0
VERTEX
8
0
10
149.153110
20
304.006237
70
0
0
SEQEND
8
0
0
POLYLINE
8
0
62
10
70
0
10
0.000000
20
0.000000
66
1
0
VERTEX
8
0
10
12.699984
20
304.006237
70
0
0
VERTEX
8
0
10
149.153110
20
304.006237
70
0
0
SEQEND
8
0
0
POLYLINE
8
0
62
10
70
0
10
0.000000
20
0.000000
66
1
0
VERTEX
8
0
10
174.553078
20
291.306253
70
0
0
VERTEX
8
0
10
149.153110
20
291.306253
70
0
0
SEQEND
8
0
0
POLYLINE
8
0
62
10
70
0
10
0.000000
20
0.000000
66
1
0
VERTEX
8
0
10
174.553078
20
304.006237
70
0
0
VERTEX
8
0
10
227.805963
20
304.006237
70
0
0
SEQEND
8
0
0
POLYLINE
8
0
62
10
70
0
10
0.000000
20
0.000000
66
1
0
VERTEX
8
0
10
227.805963
20
304.006237
70
0
0
VERTEX
8
0
10
227.805963
20
248.662273
70
0
0
SEQEND
8
0
0
POLYLINE
8
0
62
10
70
0
10
0.000000
20
0.000000
66
1
0
VERTEX
8
0
10
174.553078
20
304.006237
70
0
0
VERTEX
8
0
10
174.553078
20
291.306253
70
0
0
SEQEND
8
0
0
POLYLINE
8
0
62
10
70
0
10
0.000000
20
0.000000
66
1
0
VERTEX
8
0
10
12.699984
20
304.006237
70
0
0
VERTEX
8
0
10
12.699984
20
291.306253
70
0
0
SEQEND
8
0
0
POLYLINE
8
0
62
10
70
0
10
0.000000
20
0.000000
66
1
0
VERTEX
8
0
10
174.553078
20
-291.305592
70
0
0
VERTEX
8
0
10
149.153110
20
-291.305592
70
0
0
SEQEND
8
0
0
POLYLINE
8
0
62
10
70
0
10
0.000000
20
0.000000
66
1
0
VERTEX
8
0
10
149.153110
20
-291.305592
70
0
0
VERTEX
8
0
10
149.153110
20
-304.005576
70
0
0
SEQEND
8
0
0
POLYLINE
8
0
62
10
70
0
10
0.000000
20
0.000000
66
1
0
VERTEX
8
0
10
174.553078
20
-304.005576
70
0
0
VERTEX
8
0
10
174.553078
20
-291.305592
70
0
0
SEQEND
8
0
0
POLYLINE
8
0
62
10
70
0
10
0.000000
20
0.000000
66
1
0
VERTEX
8
0
10
12.699984
20
-304.005576
70
0
0
VERTEX
8
0
10
12.699984
20
-291.305592
70
0
0
SEQEND
8
0
0
POLYLINE
8
0
62
10
70
0
10
0.000000
20
0.000000
66
1
0
VERTEX
8
0
10
-12.699984
20
-291.305592
70
0
0
VERTEX
8
0
10
12.699984
20
-291.305592
70
0
0
SEQEND
8
0
0
POLYLINE
8
0
62
10
70
0
10
0.000000
20
0.000000
66
1
0
VERTEX
8
0
10
-12.699984
20
-304.005576
70
0
0
VERTEX
8
0
10
-12.699984
20
-291.305592
70
0
0
SEQEND
8
0
0
POLYLINE
8
0
62
10
70
0
10
0.000000
20
0.000000
66
1
0
VERTEX
8
0
10
-174.553078
20
-304.005576
70
0
0
VERTEX
8
0
10
-174.553078
20
-291.305592
70
0
0
SEQEND
8
0
0
POLYLINE
8
0
62
10
70
0
10
0.000000
20
0.000000
66
1
0
VERTEX
8
0
10
-149.153110
20
-291.305592
70
0
0
VERTEX
8
0
10
-149.153110
20
-304.005576
70
0
0
SEQEND
8
0
0
POLYLINE
8
0
62
10
70
0
10
0.000000
20
0.000000
66
1
0
VERTEX
8
0
10
-174.553078
20
-291.305592
70
0
0
VERTEX
8
0
10
-149.153110
20
-291.305592
70
0
0
SEQEND
8
0
0
POLYLINE
8
0
62
10
70
0
10
0.000000
20
0.000000
66
1
0
VERTEX
8
0
10
-227.805963
20
248.662273
70
0
0
VERTEX
8
0
10
-215.105979
20
248.662273
70
0
0
SEQEND
8
0
0
POLYLINE
8
0
62
10
70
0
10
0.000000
20
0.000000
66
1
0
VERTEX
8
0
10
-215.105979
20
248.662273
70
0
0
VERTEX
8
0
10
-215.105979
20
223.262305
70
0
0
SEQEND
8
0
0
POLYLINE
8
0
62
10
70
0
10
0.000000
20
0.000000
66
1
0
VERTEX
8
0
10
-215.105979
20
223.262305
70
0
0
VERTEX
8
0
10
-227.805963
20
223.262305
70
0
0
SEQEND
8
0
0
POLYLINE
8
0
62
10
70
0
10
0.000000
20
0.000000
66
1
0
VERTEX
8
0
10
-227.805963
20
125.911107
70
0
0
VERTEX
8
0
10
-215.105979
20
125.911107
70
0
0
SEQEND
8
0
0
POLYLINE
8
0
62
10
70
0
10
0.000000
20
0.000000
66
1
0
VERTEX
8
0
10
-215.105979
20
125.911107
70
0
0
VERTEX
8
0
10
-215.105979
20
100.511139
70
0
0
SEQEND
8
0
0
POLYLINE
8
0
62
10
70
0
10
0.000000
20
0.000000
66
1
0
VERTEX
8
0
10
-215.105979
20
100.511139
70
0
0
VERTEX
8
0
10
-227.805963
20
100.511139
70
0
0
SEQEND
8
0
0
POLYLINE
8
0
62
10
70
0
10
0.000000
20
0.000000
66
1
0
VERTEX
8
0
10
-227.805963
20
12.700275
70
0
0
VERTEX
8
0
10
-215.105979
20
12.700275
70
0
0
SEQEND
8
0
0
POLYLINE
8
0
62
10
70
0
10
0.000000
20
0.000000
66
1
0
VERTEX
8
0
10
-215.105979
20
12.700275
70
0
0
VERTEX
8
0
10
-215.105979
20
-12.699693
70
0
0
SEQEND
8
0
0
POLYLINE
8
0
62
10
70
0
10
0.000000
20
0.000000
66
1
0
VERTEX
8
0
10
-227.805963
20
-12.699693
70
0
0
VERTEX
8
0
10
-215.105979
20
-12.699693
70
0
0
SEQEND
8
0
0
POLYLINE
8
0
62
10
70
0
10
0.000000
20
0.000000
66
1
0
VERTEX
8
0
10
-215.105979
20
-100.509499
70
0
0
VERTEX
8
0
10
-227.805963
20
-100.509499
70
0
0
SEQEND
8
0
0
POLYLINE
8
0
62
10
70
0
10
0.000000
20
0.000000
66
1
0
VERTEX
8
0
10
-227.805963
20
-125.909467
70
0
0
VERTEX
8
0
10
-215.105979
20
-125.909467
70
0
0
SEQEND
8
0
0
POLYLINE
8
0
62
10
70
0
10
0.000000
20
0.000000
66
1
0
VERTEX
8
0
10
-215.105979
20
-125.909467
70
0
0
VERTEX
8
0
10
-215.105979
20
-100.509499
70
0
0
SEQEND
8
0
0
POLYLINE
8
0
62
10
70
0
10
0.000000
20
0.000000
66
1
0
VERTEX
8
0
10
-215.105979
20
-223.260136
70
0
0
VERTEX
8
0
10
-227.805963
20
-223.260136
70
0
0
SEQEND
8
0
0
POLYLINE
8
0
62
10
70
0
10
0.000000
20
0.000000
66
1
0
VERTEX
8
0
10
-215.105979
20
-248.660104
70
0
0
VERTEX
8
0
10
-215.105979
20
-223.260136
70
0
0
SEQEND
8
0
0
POLYLINE
8
0
62
10
70
0
10
0.000000
20
0.000000
66
1
0
VERTEX
8
0
10
-227.805963
20
-248.660104
70
0
0
VERTEX
8
0
10
-215.105979
20
-248.660104
70
0
0
SEQEND
8
0
0
POLYLINE
8
0
62
10
70
0
10
0.000000
20
0.000000
66
1
0
VERTEX
8
0
10
227.805963
20
-248.660104
70
0
0
VERTEX
8
0
10
215.105979
20
-248.660104
70
0
0
SEQEND
8
0
0
POLYLINE
8
0
62
10
70
0
10
0.000000
20
0.000000
66
1
0
VERTEX
8
0
10
215.105979
20
-248.660104
70
0
0
VERTEX
8
0
10
215.105979
20
-223.260136
70
0
0
SEQEND
8
0
0
POLYLINE
8
0
62
10
70
0
10
0.000000
20
0.000000
66
1
0
VERTEX
8
0
10
215.105979
20
-223.260136
70
0
0
VERTEX
8
0
10
227.805963
20
-223.260136
70
0
0
SEQEND
8
0
0
POLYLINE
8
0
62
10
70
0
10
0.000000
20
0.000000
66
1
0
VERTEX
8
0
10
215.105979
20
-125.909467
70
0
0
VERTEX
8
0
10
215.105979
20
-100.509499
70
0
0
SEQEND
8
0
0
POLYLINE
8
0
62
10
70
0
10
0.000000
20
0.000000
66
1
0
VERTEX
8
0
10
227.805963
20
-125.909467
70
0
0
VERTEX
8
0
10
215.105979
20
-125.909467
70
0
0
SEQEND
8
0
0
POLYLINE
8
0
62
10
70
0
10
0.000000
20
0.000000
66
1
0
VERTEX
8
0
10
215.105979
20
-100.509499
70
0
0
VERTEX
8
0
10
227.805963
20
-100.509499
70
0
0
SEQEND
8
0
0
POLYLINE
8
0
62
10
70
0
10
0.000000
20
0.000000
66
1
0
VERTEX
8
0
10
227.805963
20
-12.699693
70
0
0
VERTEX
8
0
10
215.105979
20
-12.699693
70
0
0
SEQEND
8
0
0
POLYLINE
8
0
62
10
70
0
10
0.000000
20
0.000000
66
1
0
VERTEX
8
0
10
215.105979
20
12.700275
70
0
0
VERTEX
8
0
10
215.105979
20
-12.699693
70
0
0
SEQEND
8
0
0
POLYLINE
8
0
62
10
70
0
10
0.000000
20
0.000000
66
1
0
VERTEX
8
0
10
227.805963
20
12.700275
70
0
0
VERTEX
8
0
10
215.105979
20
12.700275
70
0
0
SEQEND
8
0
0
POLYLINE
8
0
62
10
70
0
10
0.000000
20
0.000000
66
1
0
VERTEX
8
0
10
215.105979
20
100.511139
70
0
0
VERTEX
8
0
10
227.805963
20
100.511139
70
0
0
SEQEND
8
0
0
POLYLINE
8
0
62
10
70
0
10
0.000000
20
0.000000
66
1
0
VERTEX
8
0
10
215.105979
20
125.911107
70
0
0
VERTEX
8
0
10
215.105979
20
100.511139
70
0
0
SEQEND
8
0
0
POLYLINE
8
0
62
10
70
0
10
0.000000
20
0.000000
66
1
0
VERTEX
8
0
10
227.805963
20
125.911107
70
0
0
VERTEX
8
0
10
215.105979
20
125.911107
70
0
0
SEQEND
8
0
0
POLYLINE
8
0
62
10
70
0
10
0.000000
20
0.000000
66
1
0
VERTEX
8
0
10
215.105979
20
223.262305
70
0
0
VERTEX
8
0
10
227.805963
20
223.262305
70
0
0
SEQEND
8
0
0
POLYLINE
8
0
62
10
70
0
10
0.000000
20
0.000000
66
1
0
VERTEX
8
0
10
215.105979
20
248.662273
70
0
0
VERTEX
8
0
10
215.105979
20
223.262305
70
0
0
SEQEND
8
0
0
POLYLINE
8
0
62
10
70
0
10
0.000000
20
0.000000
66
1
0
VERTEX
8
0
10
227.805963
20
248.662273
70
0
0
VERTEX
8
0
10
215.105979
20
248.662273
70
0
0
SEQEND
8
0
0
POLYLINE
8
0
62
10
70
0
10
0.000000
20
0.000000
66
1
0
VERTEX
8
0
10
227.805963
20
223.262305
70
0
0
VERTEX
8
0
10
227.805963
20
125.911107
70
0
0
SEQEND
8
0
0
POLYLINE
8
0
62
10
70
0
10
0.000000
20
0.000000
66
1
0
VERTEX
8
0
10
227.805963
20
100.511139
70
0
0
VERTEX
8
0
10
227.805963
20
12.700275
70
0
0
SEQEND
8
0
0
POLYLINE
8
0
62
10
70
0
10
0.000000
20
0.000000
66
1
0
VERTEX
8
0
10
227.805963
20
-12.699693
70
0
0
VERTEX
8
0
10
227.805963
20
-100.509499
70
0
0
SEQEND
8
0
0
POLYLINE
8
0
62
10
70
0
10
0.000000
20
0.000000
66
1
0
VERTEX
8
0
10
227.805963
20
-125.909467
70
0
0
VERTEX
8
0
10
227.805963
20
-223.260136
70
0
0
SEQEND
8
0
0
POLYLINE
8
0
62
10
70
0
10
0.000000
20
0.000000
66
1
0
VERTEX
8
0
10
227.805963
20
-304.005576
70
0
0
VERTEX
8
0
10
227.805963
20
-248.660104
70
0
0
SEQEND
8
0
0
POLYLINE
8
0
62
10
70
0
10
0.000000
20
0.000000
66
1
0
VERTEX
8
0
10
227.805963
20
-304.005576
70
0
0
VERTEX
8
0
10
174.553078
20
-304.005576
70
0
0
SEQEND
8
0
0
POLYLINE
8
0
62
10
70
0
10
0.000000
20
0.000000
66
1
0
VERTEX
8
0
10
149.153110
20
-304.005576
70
0
0
VERTEX
8
0
10
12.699984
20
-304.005576
70
0
0
SEQEND
8
0
0
POLYLINE
8
0
62
10
70
0
10
0.000000
20
0.000000
66
1
0
VERTEX
8
0
10
-12.699984
20
-304.005576
70
0
0
VERTEX
8
0
10
-149.153110
20
-304.005576
70
0
0
SEQEND
8
0
0
POLYLINE
8
0
62
10
70
0
10
0.000000
20
0.000000
66
1
0
VERTEX
8
0
10
-174.553078
20
-304.005576
70
0
0
VERTEX
8
0
10
-227.805963
20
-304.005576
70
0
0
SEQEND
8
0
0
POLYLINE
8
0
62
10
70
0
10
0.000000
20
0.000000
66
1
0
VERTEX
8
0
10
-227.805963
20
-304.005576
70
0
0
VERTEX
8
0
10
-227.805963
20
-248.660104
70
0
0
SEQEND
8
0
0
POLYLINE
8
0
62
10
70
0
10
0.000000
20
0.000000
66
1
0
VERTEX
8
0
10
-227.805963
20
-223.260136
70
0
0
VERTEX
8
0
10
-227.805963
20
-125.909467
70
0
0
SEQEND
8
0
0
POLYLINE
8
0
62
10
70
0
10
0.000000
20
0.000000
66
1
0
VERTEX
8
0
10
-227.805963
20
-100.509499
70
0
0
VERTEX
8
0
10
-227.805963
20
-12.699693
70
0
0
SEQEND
8
0
0
POLYLINE
8
0
62
10
70
0
10
0.000000
20
0.000000
66
1
0
VERTEX
8
0
10
-227.805963
20
12.700275
70
0
0
VERTEX
8
0
10
-227.805963
20
100.511139
70
0
0
SEQEND
8
0
0
POLYLINE
8
0
62
10
70
0
10
0.000000
20
0.000000
66
1
0
VERTEX
8
0
10
-227.805963
20
125.911107
70
0
0
VERTEX
8
0
10
-227.805963
20
223.262305
70
0
0
SEQEND
8
0
0
POLYLINE
8
0
62
10
70
0
10
0.000000
20
0.000000
66
1
0
VERTEX
8
0
10
0.066146
20
0.000374
70
0
0
VERTEX
8
0
10
0.033073
20
0.057658
70
0
0
VERTEX
8
0
10
-0.033073
20
0.057658
70
0
0
VERTEX
8
0
10
-0.066146
20
0.000374
70
0
0
VERTEX
8
0
10
-0.033073
20
-0.056910
70
0
0
VERTEX
8
0
10
0.033073
20
-0.056910
70
0
0
VERTEX
8
0
10
0.066146
20
0.000374
70
0
0
VERTEX
8
0
10
0.066146
20
0.000374
70
0
0
SEQEND
8
0
0
POLYLINE
8
0
62
10
70
0
10
0.000000
20
0.000000
66
1
0
VERTEX
8
0
10
0.066146
20
291.306257
70
0
0
VERTEX
8
0
10
0.033073
20
291.363541
70
0
0
VERTEX
8
0
10
-0.033073
20
291.363541
70
0
0
VERTEX
8
0
10
-0.066146
20
291.306257
70
0
0
VERTEX
8
0
10
-0.033073
20
291.248973
70
0
0
VERTEX
8
0
10
0.033073
20
291.248973
70
0
0
VERTEX
8
0
10
0.066146
20
291.306257
70
0
0
VERTEX
8
0
10
0.066146
20
291.306257
70
0
0
SEQEND
8
0
0
POLYLINE
8
0
62
10
70
0
10
0.000000
20
0.000000
66
1
0
VERTEX
8
0
10
-215.039833
20
0.000374
70
0
0
VERTEX
8
0
10
-215.072906
20
0.057658
70
0
0
VERTEX
8
0
10
-215.139052
20
0.057658
70
0
0
VERTEX
8
0
10
-215.172125
20
0.000374
70
0
0
VERTEX
8
0
10
-215.139052
20
-0.056910
70
0
0
VERTEX
8
0
10
-215.072906
20
-0.056910
70
0
0
VERTEX
8
0
10
-215.039833
20
0.000374
70
0
0
VERTEX
8
0
10
-215.039833
20
0.000374
70
0
0
SEQEND
8
0
0
POLYLINE
8
0
62
10
70
0
10
0.000000
20
0.000000
66
1
0
VERTEX
8
0
10
215.172125
20
0.000374
70
0
0
VERTEX
8
0
10
215.139052
20
0.057658
70
0
0
VERTEX
8
0
10
215.072906
20
0.057658
70
0
0
VERTEX
8
0
10
215.039833
20
0.000374
70
0
0
VERTEX
8
0
10
215.072906
20
-0.056910
70
0
0
VERTEX
8
0
10
215.139052
20
-0.056910
70
0
0
VERTEX
8
0
10
215.172125
20
0.000374
70
0
0
VERTEX
8
0
10
215.172125
20
0.000374
70
0
0
SEQEND
8
0
 0 
ENDSEC
 0 
EOF