999
"DXF R12 Output" (www.mydxf.blogspot.com)
 0 
SECTION
 2 
HEADER
 9 
$ACADVER
 1 
AC1009
 9 
$EXTMIN
 10 
 0 
 20 
 0 
 9 
$EXTMAX
 10 
 8.5 
 20 
 11 
 0 
ENDSEC
 0 
SECTION
 2 
ENTITIES
0
POLYLINE
8
0
62
10
70
0
10
0.000000
20
0.000000
66
1
0
VERTEX
8
0
10
40.993051
20
26.020362
70
0
0
VERTEX
8
0
10
40.741743
20
27.914622
70
0
0
VERTEX
8
0
10
40.020396
20
29.650357
70
0
0
VERTEX
8
0
10
38.877878
20
31.142929
70
0
0
VERTEX
8
0
10
37.363055
20
32.307699
70
0
0
VERTEX
8
0
10
35.596924
20
33.037189
70
0
0
VERTEX
8
0
10
33.733060
20
33.280353
70
0
0
VERTEX
8
0
10
31.869196
20
33.037189
70
0
0
VERTEX
8
0
10
30.103064
20
32.307699
70
0
0
VERTEX
8
0
10
28.588241
20
31.142929
70
0
0
VERTEX
8
0
10
27.445723
20
29.650357
70
0
0
VERTEX
8
0
10
26.724377
20
27.914622
70
0
0
VERTEX
8
0
10
26.473069
20
26.020362
70
0
0
VERTEX
8
0
10
26.724377
20
24.126102
70
0
0
VERTEX
8
0
10
27.445723
20
22.390367
70
0
0
VERTEX
8
0
10
28.588241
20
20.897795
70
0
0
VERTEX
8
0
10
30.103064
20
19.733026
70
0
0
VERTEX
8
0
10
31.869196
20
19.003535
70
0
0
VERTEX
8
0
10
33.733060
20
18.760371
70
0
0
VERTEX
8
0
10
35.596924
20
19.003535
70
0
0
VERTEX
8
0
10
37.363055
20
19.733026
70
0
0
VERTEX
8
0
10
38.877878
20
20.897795
70
0
0
VERTEX
8
0
10
40.020396
20
22.390367
70
0
0
VERTEX
8
0
10
40.741743
20
24.126102
70
0
0
VERTEX
8
0
10
40.993051
20
26.020362
70
0
0
VERTEX
8
0
10
40.993051
20
26.020362
70
0
0
SEQEND
8
0
0
POLYLINE
8
0
62
10
70
0
10
0.000000
20
0.000000
66
1
0
VERTEX
8
0
10
36.483059
20
26.020362
70
0
0
VERTEX
8
0
10
36.387866
20
26.737885
70
0
0
VERTEX
8
0
10
36.114629
20
27.395361
70
0
0
VERTEX
8
0
10
35.681857
20
27.960729
70
0
0
VERTEX
8
0
10
35.108060
20
28.401930
70
0
0
VERTEX
8
0
10
34.439071
20
28.678252
70
0
0
VERTEX
8
0
10
33.733061
20
28.770359
70
0
0
VERTEX
8
0
10
33.027052
20
28.678252
70
0
0
VERTEX
8
0
10
32.358062
20
28.401930
70
0
0
VERTEX
8
0
10
31.784266
20
27.960729
70
0
0
VERTEX
8
0
10
31.351494
20
27.395361
70
0
0
VERTEX
8
0
10
31.078256
20
26.737885
70
0
0
VERTEX
8
0
10
30.983064
20
26.020362
70
0
0
VERTEX
8
0
10
31.078256
20
25.302839
70
0
0
VERTEX
8
0
10
31.351494
20
24.645363
70
0
0
VERTEX
8
0
10
31.784266
20
24.079995
70
0
0
VERTEX
8
0
10
32.358063
20
23.638794
70
0
0
VERTEX
8
0
10
33.027052
20
23.362472
70
0
0
VERTEX
8
0
10
33.733061
20
23.270365
70
0
0
VERTEX
8
0
10
34.439071
20
23.362472
70
0
0
VERTEX
8
0
10
35.108060
20
23.638794
70
0
0
VERTEX
8
0
10
35.681857
20
24.079995
70
0
0
VERTEX
8
0
10
36.114629
20
24.645363
70
0
0
VERTEX
8
0
10
36.387866
20
25.302839
70
0
0
VERTEX
8
0
10
36.483059
20
26.020362
70
0
0
VERTEX
8
0
10
36.483059
20
26.020362
70
0
0
SEQEND
8
0
 0 
ENDSEC
 0 
EOF